<?xml version="1.0" encoding="UTF-8"?>
<svg xmlns="http://www.w3.org/2000/svg" version="1.1" viewBox="0 0 987.2 724.4">
  <defs>
    <style>
      .cls-1 {
        fill: #3b82f6;
      }

      .cls-2 {
        fill: #82afe1;
      }
    </style>
  </defs>
  <!-- Generator: Adobe Illustrator 28.7.1, SVG Export Plug-In . SVG Version: 1.2.0 Build 142)  -->
  <g>
    <g id="Layer_1">
      <g>
        <polygon class="cls-2" points="876.8 274.8 876.8 406.2 901.5 406.2 901.5 255.4 876.8 274.8"/>
        <circle class="cls-2" cx="889.2" cy="434" r="38.7"/>
      </g>
      <g>
        <polygon class="cls-1" points="493.6 16.9 13.9 229.8 308.1 367 310.3 325.3 108.3 229.8 493.6 58.6 493.6 16.9"/>
        <path class="cls-1" d="M209.3,535v-231.6l35.1,15.4v183.3s45,12.1,53.4,18.3c8.4,6.2,10.2,12.1,13.5,20.8s52.3,127,182.2,129.9v38.8s-88.2,3.7-165-73.2c0,0-32.9-32.2-47.9-72.4,0,0-1.5-13.9-12.8-17.9-11.3-4-42.4-13.2-58.5-11.3h0Z"/>
        <polygon class="cls-1" points="493.6 16.9 973.3 229.8 679.1 367 676.9 325.3 878.9 229.8 493.6 58.6 493.6 16.9"/>
        <path class="cls-1" d="M777.9,535v-231.6l-35.1,15.4v183.3s-45,12.1-53.4,18.3c-8.4,6.2-10.2,12.1-13.5,20.8-3.3,8.8-52.3,127-182.2,129.9v38.8s88.2,3.7,165-73.2c0,0,32.9-32.2,47.9-72.4,0,0,1.5-13.9,12.8-17.9,11.3-4,42.4-13.2,58.5-11.3h0Z"/>
      </g>
      <g>
        <path class="cls-2" d="M419.3,246.6h-73.2v167.6s-9.5,98.8,56.3,132.4c65.9,33.7,91.1,24.9,91.1,24.9v-62.2s-72.2-5.9-74-66.6c-1.8-60.7-.3-196.1-.3-196.1h0Z"/>
        <path class="cls-2" d="M567.9,246.6h73.2v167.6s9.5,98.8-56.3,132.4c-65.9,33.7-91.1,24.9-91.1,24.9v-62.2s72.2-5.9,74-66.6c1.8-60.7.3-196.1.3-196.1h0Z"/>
      </g>
    </g>
  </g>
</svg>